<svg xmlns="http://www.w3.org/2000/svg" viewBox="0 0 512 512" width="512" height="512">
  <defs>
    <linearGradient id="bg" x1="0" y1="0" x2="1" y2="1">
      <stop offset="0" stop-color="#6d63ff"/>
      <stop offset="1" stop-color="#9b4dff"/>
    </linearGradient>
    <linearGradient id="page" x1="0" y1="0" x2="0" y2="1">
      <stop offset="0" stop-color="#ffffff"/>
      <stop offset="1" stop-color="#eef0ff"/>
    </linearGradient>
  </defs>
  <rect width="512" height="512" rx="112" fill="url(#bg)"/>
  <g transform="translate(132 96)">
    <rect x="0" y="0" width="248" height="320" rx="28" fill="url(#page)"/>
    <rect x="-14" y="36" width="36" height="248" rx="14" fill="#3a31c9"/>
    <circle cx="4" cy="74" r="9" fill="#fff"/>
    <circle cx="4" cy="160" r="9" fill="#fff"/>
    <circle cx="4" cy="246" r="9" fill="#fff"/>
    <rect x="54" y="70" width="150" height="20" rx="10" fill="#6d63ff"/>
    <rect x="54" y="120" width="170" height="14" rx="7" fill="#c9ccf7"/>
    <rect x="54" y="156" width="170" height="14" rx="7" fill="#c9ccf7"/>
    <rect x="54" y="192" width="120" height="14" rx="7" fill="#c9ccf7"/>
    <path d="M150 250 l18 18 l40 -52" fill="none" stroke="#33c08a" stroke-width="18" stroke-linecap="round" stroke-linejoin="round"/>
  </g>
</svg>
